<svg width="36" height="45" viewBox="0 0 36 45" fill="none" xmlns="http://www.w3.org/2000/svg">
<path d="M16.2551 0.5V14.6115C13.5863 14.0461 10.8296 14.4334 8.36061 15.7208C5.89158 17.0081 3.83016 19.1328 2.45708 21.8057C1.084 24.4785 0.466002 27.5695 0.687251 30.6576C0.9085 33.7458 1.95824 36.6811 3.69351 39.0638C5.42878 41.4464 7.76524 43.1606 10.3847 43.9729C13.0042 44.7852 15.7793 44.6561 18.3322 43.6032C20.885 42.5503 23.0916 40.6248 24.6513 38.0889C26.211 35.553 27.048 32.53 27.0484 29.4315V21.2118C29.1203 22.2176 31.35 22.7311 33.6015 22.7211H35.5289V10.4005H33.6015C29.9337 10.4005 27.0484 7.01893 27.0484 2.70011V0.5H16.2551ZM20.1098 4.90022H23.3633C24.1226 9.78447 27.3722 13.6919 31.6741 14.6027V18.1625C29.6735 17.8281 27.8675 16.97 26.1946 15.6918L23.1936 13.3993V29.4315C23.1935 31.5653 22.6329 33.6501 21.5842 35.4165C20.5355 37.1829 19.047 38.5499 17.3109 39.3409C15.5747 40.1318 13.6707 40.3105 11.8447 39.8536C10.0188 39.3969 8.35469 38.3256 7.06747 36.7783C5.78024 35.231 4.92898 33.2787 4.62363 31.1735C4.31828 29.0683 4.57287 26.907 5.35451 24.9687C6.13615 23.0303 7.40893 21.404 9.00848 20.2998C10.608 19.1956 12.4609 18.6641 14.3277 18.7741V22.3031C13.072 22.1925 11.8162 22.5166 10.7242 23.2331C9.6323 23.9495 8.75493 25.0251 8.20662 26.3194C7.65832 27.6137 7.46455 29.0666 7.65061 30.4886C7.83666 31.9105 8.3939 33.2354 9.2496 34.2903C10.1053 35.3452 11.2197 36.0812 12.4474 36.4022C13.6751 36.7231 14.959 36.6142 16.1316 36.0896C17.3043 35.565 18.3111 34.649 19.0208 33.4613C19.7305 32.2735 20.11 30.8692 20.1098 29.4315V4.90022ZM11.4366 29.4315C11.4366 28.7021 11.6905 28.0026 12.1423 27.4868C12.5941 26.9711 13.2069 26.6813 13.8459 26.6813C14.4848 26.6813 15.0976 26.9711 15.5494 27.4868C16.0013 28.0026 16.2551 28.7021 16.2551 29.4315C16.2551 30.1608 16.0013 30.8604 15.5494 31.3761C15.0976 31.8919 14.4848 32.1816 13.8459 32.1816C13.2069 32.1816 12.5941 31.8919 12.1423 31.3761C11.6905 30.8604 11.4366 30.1608 11.4366 29.4315Z" fill="white"/>
</svg>
