<?xml version="1.0" standalone="no"?>
<!DOCTYPE svg PUBLIC "-//W3C//DTD SVG 20010904//EN"
 "http://www.w3.org/TR/2001/REC-SVG-20010904/DTD/svg10.dtd">
<svg version="1.0" xmlns="http://www.w3.org/2000/svg"
 width="1792.000000pt" height="1792.000000pt" viewBox="0 0 1792.000000 1792.000000"
 preserveAspectRatio="xMidYMid meet">
<metadata>
Created by potrace 1.14, written by Peter Selinger 2001-2017
</metadata>
<g transform="translate(0.000000,1792.000000) scale(0.100000,-0.100000)"
fill="#000000" stroke="none">
<path d="M17680 12139 c-36 -11 -78 -22 -94 -24 -16 -3 -36 -10 -45 -14 -9 -5
-29 -11 -46 -14 -16 -3 -104 -26 -195 -51 -91 -26 -174 -48 -185 -51 -11 -2
-63 -16 -115 -30 -52 -15 -102 -28 -110 -30 -8 -2 -30 -8 -47 -14 -18 -5 -33
-7 -33 -4 0 3 -6 1 -12 -5 -7 -6 -31 -14 -53 -18 -49 -10 -47 -9 -65 -17 -8
-4 -33 -11 -55 -16 -47 -11 -177 -46 -255 -68 -30 -9 -56 -15 -57 -15 -2 1
-24 -5 -50 -13 -27 -8 -149 -42 -273 -75 -198 -54 -262 -71 -320 -85 -27 -7
-274 -75 -315 -87 -22 -6 -46 -13 -54 -14 -8 -2 -26 -6 -40 -10 -14 -4 -29 -8
-33 -9 -5 -2 -9 -3 -10 -5 -4 -2 -26 -8 -63 -15 -16 -3 -37 -8 -45 -12 -8 -3
-19 -7 -25 -8 -5 -2 -30 -8 -55 -15 -25 -7 -52 -14 -60 -15 -8 -2 -15 -4 -15
-5 0 -1 -7 -3 -15 -5 -16 -4 -251 -67 -340 -92 -30 -8 -62 -16 -70 -18 -8 -2
-132 -35 -275 -75 -143 -39 -270 -73 -282 -76 -12 -2 -35 -9 -50 -15 -16 -6
-29 -10 -30 -10 -2 1 -4 1 -5 0 -2 0 -10 -2 -18 -4 -9 -1 -77 -19 -150 -40
-134 -36 -155 -42 -196 -50 -12 -3 -40 -11 -63 -19 -22 -9 -41 -13 -41 -10 0
2 -8 0 -18 -5 -11 -6 -30 -12 -43 -15 -43 -9 -154 -38 -169 -43 -8 -4 -19 -7
-25 -8 -5 -2 -57 -15 -115 -30 -57 -15 -109 -28 -115 -30 -5 -1 -17 -5 -25 -8
-14 -6 -127 -37 -215 -59 -22 -5 -44 -11 -50 -12 -5 -2 -17 -6 -25 -9 -17 -7
-125 -36 -155 -42 -11 -2 -103 -27 -205 -55 -203 -56 -211 -58 -240 -64 -11
-3 -24 -7 -29 -10 -5 -3 -26 -8 -47 -12 -22 -3 -46 -10 -54 -14 -8 -4 -28 -10
-45 -13 -16 -3 -52 -12 -80 -21 -27 -9 -52 -16 -55 -16 -3 0 -23 -5 -45 -11
-22 -6 -47 -13 -55 -14 -8 -2 -49 -13 -90 -25 -41 -12 -100 -28 -130 -36 -30
-8 -63 -17 -72 -19 -10 -3 -26 -7 -35 -9 -10 -2 -52 -14 -93 -26 -41 -11 -82
-23 -90 -25 -8 -2 -51 -13 -95 -25 -44 -12 -87 -23 -95 -25 -26 -6 -423 -114
-460 -126 -19 -5 -42 -11 -50 -13 -8 -1 -35 -8 -60 -15 -25 -7 -47 -13 -50
-13 -3 0 -15 -4 -28 -9 -12 -5 -33 -11 -45 -13 -12 -3 -71 -19 -132 -36 -60
-17 -117 -32 -125 -34 -39 -8 -77 -18 -100 -27 -14 -4 -36 -11 -50 -13 -14 -3
-59 -15 -100 -26 -41 -12 -82 -23 -90 -25 -8 -2 -15 -4 -15 -5 0 -1 -9 -3 -20
-5 -11 -3 -103 -27 -205 -55 -102 -28 -192 -52 -200 -54 -64 -16 -148 -38
-160 -43 -8 -3 -20 -7 -27 -9 -6 -1 -113 -30 -237 -64 -124 -33 -235 -63 -246
-65 -11 -2 -24 -6 -28 -9 -5 -3 -19 -7 -33 -9 -13 -3 -44 -10 -69 -17 -25 -7
-46 -12 -47 -11 -2 0 -21 -6 -43 -14 -22 -8 -44 -15 -48 -15 -15 -2 -58 -12
-72 -17 -8 -3 -19 -7 -25 -8 -5 -2 -30 -8 -55 -15 -25 -7 -52 -14 -60 -15 -8
-1 -22 -5 -30 -8 -14 -5 -82 -24 -120 -32 -8 -2 -31 -9 -50 -15 -19 -6 -46
-13 -60 -16 -14 -2 -36 -9 -50 -14 -20 -7 -121 -35 -165 -44 -23 -5 -103 -27
-150 -41 -27 -9 -59 -17 -70 -20 -46 -10 -331 -87 -345 -92 -8 -3 -19 -7 -25
-8 -5 -2 -37 -10 -70 -19 -33 -9 -67 -18 -76 -21 -9 -2 -94 -24 -189 -50 -95
-26 -180 -49 -189 -50 -9 -2 -16 -4 -16 -5 0 -1 -8 -3 -17 -6 -10 -2 -26 -6
-35 -8 -10 -3 -20 -5 -23 -7 -3 -1 -9 -3 -15 -4 -5 -1 -30 -8 -55 -15 -25 -7
-49 -14 -55 -16 -5 -1 -54 -14 -108 -28 -53 -15 -105 -29 -115 -31 -9 -2 -42
-11 -72 -20 -30 -9 -62 -18 -70 -20 -8 -2 -15 -4 -15 -5 0 -1 -9 -3 -21 -5
-11 -3 -88 -23 -170 -45 -169 -46 -177 -48 -244 -65 -8 -2 -15 -4 -15 -5 0 -1
-7 -3 -15 -5 -8 -1 -67 -17 -130 -35 -63 -17 -131 -36 -150 -40 -19 -5 -62
-16 -95 -25 -33 -10 -67 -19 -75 -20 -8 -2 -15 -4 -15 -6 0 -1 -9 -3 -20 -5
-11 -1 -69 -17 -130 -34 -60 -17 -117 -32 -125 -34 -8 -2 -22 -6 -30 -9 -8 -4
-26 -9 -40 -11 -14 -3 -50 -12 -80 -21 -30 -8 -66 -17 -80 -20 -58 -11 -73
-14 -90 -20 -10 -3 -34 -8 -52 -10 -18 -2 -46 -6 -63 -9 -128 -24 -223 -31
-445 -31 -231 0 -291 5 -485 40 -119 21 -273 68 -405 122 -72 30 -220 108
-220 116 0 5 -4 6 -9 2 -5 -3 -15 0 -23 7 -7 7 -33 26 -58 43 -207 136 -426
389 -519 598 -12 26 -30 68 -42 93 -11 26 -22 54 -24 63 -2 9 -9 32 -15 51
-24 78 -49 177 -55 220 -3 25 -8 58 -11 74 -17 100 -22 358 -10 491 5 61 19
167 31 245 4 24 41 197 50 232 21 88 61 226 82 283 28 77 27 76 38 123 4 17
10 32 14 32 4 0 13 21 21 48 7 26 19 61 26 77 7 17 13 35 14 40 1 6 5 15 10
20 4 6 24 51 45 100 21 50 41 92 44 95 3 3 7 12 9 20 5 22 35 84 43 90 4 3 10
19 13 35 3 17 3 23 0 15 -4 -8 -10 -17 -14 -20 -7 -5 -138 -160 -210 -250 -19
-24 -40 -48 -45 -54 -6 -6 -33 -40 -60 -76 -28 -36 -55 -69 -61 -75 -6 -5 -24
-28 -40 -50 -16 -22 -33 -45 -39 -51 -22 -26 -175 -226 -220 -289 -11 -15 -37
-49 -57 -76 -21 -27 -38 -52 -38 -56 0 -5 -9 -15 -20 -23 -11 -8 -20 -18 -20
-22 0 -10 -102 -152 -112 -156 -5 -2 -8 -10 -8 -18 0 -8 -3 -14 -8 -14 -4 0
-12 -9 -17 -19 -14 -28 -176 -265 -185 -271 -4 -3 -10 -15 -14 -27 -4 -13 -12
-23 -17 -23 -5 0 -9 -5 -9 -12 0 -6 -10 -25 -23 -42 -21 -27 -176 -279 -282
-455 -34 -58 -83 -147 -123 -226 -9 -16 -18 -32 -22 -35 -7 -5 -220 -434 -220
-443 0 -3 -15 -38 -33 -79 -19 -40 -46 -104 -62 -143 -15 -38 -33 -83 -40
-100 -7 -16 -23 -59 -35 -95 -12 -36 -26 -74 -30 -85 -17 -43 -56 -169 -81
-265 -5 -19 -12 -43 -14 -52 -12 -45 -23 -89 -30 -128 -3 -14 -7 -36 -10 -50
-14 -61 -30 -157 -43 -257 -11 -93 -8 -450 6 -538 15 -96 38 -196 58 -248 7
-20 11 -37 8 -37 -4 0 -2 -6 3 -12 5 -7 20 -40 33 -73 118 -300 384 -579 763
-803 135 -80 422 -210 440 -200 1 1 12 -4 25 -11 13 -7 31 -14 40 -16 9 -2 60
-15 112 -29 114 -30 227 -53 295 -60 28 -3 79 -9 115 -13 122 -15 650 -6 679
11 3 2 33 7 66 10 54 6 92 12 150 22 11 2 36 7 55 10 19 4 44 9 55 11 11 2 31
6 45 9 14 3 41 9 60 14 19 5 47 11 61 14 73 12 388 103 564 161 80 27 351 123
380 136 17 7 32 13 35 14 10 4 46 17 65 25 46 19 190 75 195 76 3 0 19 6 35
13 17 7 59 24 95 38 36 14 89 36 118 49 29 13 58 24 65 24 7 0 18 5 24 11 6 6
17 12 24 13 8 1 28 9 44 16 39 17 70 30 190 80 55 23 114 48 131 55 117 53
193 83 198 78 3 -4 6 -1 6 5 0 7 5 12 11 12 5 0 29 8 52 19 23 10 87 38 142
61 137 58 154 65 205 88 115 51 270 113 276 112 4 -1 10 2 13 7 5 7 47 25 231
101 36 15 67 30 68 35 2 4 12 7 21 7 10 0 21 3 25 8 4 4 11 7 14 8 4 0 23 7
42 16 19 9 85 37 145 63 202 86 228 97 286 123 25 12 68 30 95 40 27 11 74 31
104 45 30 14 116 51 190 82 74 32 153 65 175 75 153 69 300 130 312 130 7 0
13 5 13 10 0 6 5 10 11 10 11 0 37 10 143 58 33 15 63 26 67 25 4 -1 13 4 19
12 7 8 20 15 30 15 10 0 35 9 57 19 21 11 54 26 73 35 19 8 61 26 93 40 32 14
61 26 65 26 4 0 19 7 34 14 15 8 67 31 115 52 49 20 116 50 151 65 35 16 65
29 67 29 3 0 28 11 57 24 29 13 109 47 178 76 69 29 132 56 140 61 25 13 110
49 163 70 28 11 71 29 96 41 71 32 120 53 201 88 41 18 91 39 110 47 19 9 49
21 65 28 17 7 56 25 88 39 32 14 60 26 63 26 3 0 31 12 62 26 31 15 66 30 77
35 11 4 40 17 65 28 25 10 146 63 270 116 124 53 243 105 265 115 22 9 121 52
220 95 99 43 199 86 222 96 23 11 47 19 52 19 6 0 11 5 11 12 0 6 3 9 6 6 5
-6 114 39 244 99 30 14 61 26 68 26 6 0 12 4 12 9 0 4 7 8 15 8 8 0 23 4 33
10 9 5 37 18 62 29 25 10 63 27 85 37 22 9 43 16 48 16 4 -1 7 3 7 10 0 6 3 8
6 5 4 -4 19 0 33 8 14 8 55 26 91 41 36 14 88 36 115 49 28 12 95 41 150 65
55 23 123 52 150 65 28 12 95 42 150 65 99 42 148 63 235 102 25 11 54 24 65
28 11 5 55 24 98 44 43 20 80 36 83 36 3 0 26 10 52 22 26 12 52 23 58 24 7 1
46 18 89 38 42 20 78 36 81 36 2 0 29 12 61 26 32 14 72 31 88 39 17 7 51 22
77 34 26 12 49 21 52 21 3 0 34 13 68 29 35 15 128 56 208 90 80 35 169 73
198 87 29 13 54 24 57 24 2 0 34 14 72 31 37 16 77 34 88 39 11 5 46 20 78 34
32 14 60 26 62 26 2 0 34 14 70 30 36 17 67 30 70 30 4 0 87 37 195 87 30 14
60 26 65 27 6 2 36 15 69 29 32 15 60 27 62 27 2 0 38 16 80 35 41 19 77 35
79 35 3 0 29 11 59 25 49 23 103 46 116 50 11 4 63 26 105 45 75 34 124 55
270 118 77 33 163 71 190 83 28 12 55 23 60 25 6 1 44 18 87 37 42 20 79 33
82 30 3 -4 6 -1 6 5 0 7 5 12 11 12 5 0 29 8 52 19 23 10 92 40 152 66 153 66
195 84 230 100 17 7 120 52 230 100 110 47 209 90 220 95 81 36 159 70 210 91
33 13 61 27 63 31 2 4 19 10 38 14 19 3 34 10 34 15 0 5 3 8 8 7 8 -2 47 14
119 48 28 13 54 24 57 24 5 0 102 42 136 59 8 4 87 39 175 76 177 76 222 101
231 128 15 46 -58 58 -166 26z"/>
</g>
</svg>
