<?xml version="1.0" standalone="no"?>
<!DOCTYPE svg PUBLIC "-//W3C//DTD SVG 20010904//EN"
 "http://www.w3.org/TR/2001/REC-SVG-20010904/DTD/svg10.dtd">
<svg version="1.0" xmlns="http://www.w3.org/2000/svg"
 width="840.000000pt" height="840.000000pt" viewBox="0 0 840.000000 840.000000"
 preserveAspectRatio="xMidYMid meet">
<metadata>
Created by potrace 1.14, written by Peter Selinger 2001-2017
</metadata>
<g transform="translate(0.000000,840.000000) scale(0.100000,-0.100000)"
fill="#000000" stroke="none">
<path d="M3875 7230 c-886 -60 -1681 -293 -2330 -683 -185 -111 -170 -94 -155
-174 18 -96 72 -257 115 -344 147 -293 394 -458 785 -523 137 -22 267 -34 595
-51 532 -29 765 -69 1002 -176 78 -35 215 -123 273 -175 29 -27 45 -35 55 -28
7 5 35 28 64 51 166 136 379 225 651 272 161 28 272 39 605 56 461 24 657 51
844 117 268 93 450 268 562 538 30 71 89 283 89 319 0 10 -37 40 -97 77 -638
397 -1408 639 -2268 714 -167 15 -634 20 -790 10z"/>
<path d="M1267 6369 c-1046 -744 -1479 -1825 -1146 -2865 119 -371 336 -724
642 -1041 l79 -81 71 19 c275 75 557 193 784 328 107 64 281 191 322 235 l24
25 76 -70 c117 -108 300 -222 432 -268 57 -20 24 -22 -82 -6 -129 19 -274 58
-357 96 l-63 28 -67 -41 c-277 -169 -628 -313 -937 -383 -66 -15 -121 -29
-123 -30 -2 -2 16 -22 40 -44 41 -40 45 -41 91 -36 26 3 83 16 128 29 l80 23
-26 -28 c-15 -15 -54 -42 -86 -59 -32 -17 -59 -33 -59 -35 0 -7 220 -166 315
-228 651 -422 1436 -677 2335 -759 212 -19 780 -16 990 5 935 96 1740 376
2385 829 159 111 384 294 373 302 -1 2 -57 16 -123 31 -305 69 -624 198 -905
365 l-100 59 -63 -29 c-82 -37 -227 -76 -356 -95 -107 -16 -139 -14 -80 7 59
20 238 116 303 162 33 24 93 73 132 109 l71 66 19 -21 c11 -11 59 -52 107 -89
255 -198 618 -372 987 -473 l89 -24 78 81 c397 415 632 864 724 1384 31 171
33 510 6 676 -63 374 -179 668 -391 992 -198 302 -496 605 -833 847 -118 85
-113 88 -92 -40 121 -747 -32 -1289 -466 -1651 -181 -151 -410 -280 -805 -456
-461 -205 -663 -320 -816 -467 -91 -88 -128 -148 -169 -278 -37 -119 -55 -252
-55 -412 l0 -136 -47 -27 c-27 -15 -87 -44 -135 -65 l-88 -38 -62 45 c-35 26
-93 76 -130 111 -80 77 -58 82 -243 -53 -96 -70 -135 -93 -150 -89 -11 4 -67
29 -125 58 l-105 51 -6 175 c-7 187 -24 298 -66 413 -39 111 -76 168 -161 249
-149 142 -359 262 -812 463 -277 123 -488 232 -626 323 -380 252 -578 548
-661 985 -27 146 -25 533 5 736 13 85 25 158 28 163 13 21 -21 3 -99 -53z
m2298 -3504 c45 -30 134 -80 196 -110 63 -30 107 -54 97 -55 -9 0 -67 9 -130
19 -128 23 -257 58 -337 94 l-55 24 -97 -58 c-338 -201 -698 -334 -1084 -400
-161 -28 -509 -37 -656 -18 l-104 14 185 6 c290 11 515 51 795 144 258 85 445
171 657 302 90 55 250 175 282 211 l19 22 74 -70 c42 -39 112 -95 158 -125z
m1676 55 c338 -251 826 -445 1294 -516 61 -9 193 -19 295 -23 l185 -6 -104
-14 c-148 -19 -495 -10 -660 18 -378 65 -744 200 -1081 401 l-99 59 -51 -25
c-71 -34 -205 -72 -338 -95 -63 -10 -121 -19 -130 -19 -10 1 34 25 97 55 143
69 258 145 353 234 l73 69 42 -38 c22 -22 79 -66 124 -100z m-1000 -66 c39
-42 211 -169 305 -224 325 -192 693 -327 1059 -389 145 -25 394 -43 484 -36
49 4 60 3 43 -4 -12 -6 -92 -16 -177 -23 -519 -40 -1132 117 -1644 422 l-104
62 -166 -80 c-372 -180 -707 -297 -987 -346 -140 -25 -149 -18 -26 20 212 65
453 171 667 293 109 63 384 241 460 300 49 37 55 38 86 5z m-1307 -355 c-44
-47 -163 -122 -245 -157 -128 -53 -260 -75 -449 -74 -91 0 -190 5 -220 10
l-55 8 60 7 c33 4 118 14 190 22 231 27 504 100 670 180 39 18 72 34 74 34 3
1 -8 -13 -25 -30z m2784 -79 c195 -64 345 -93 665 -126 32 -3 57 -7 55 -9 -1
-2 -65 -8 -140 -15 -157 -13 -310 -3 -448 30 -120 29 -271 105 -345 174 l-60
56 78 -36 c43 -19 130 -52 195 -74z m-1833 -136 c-59 -50 -196 -136 -288 -179
-186 -88 -375 -136 -626 -156 -291 -24 -659 32 -934 141 -91 36 -202 91 -152
75 80 -26 300 -76 395 -90 152 -23 507 -31 681 -16 316 28 614 101 849 206 52
24 97 43 100 44 3 0 -8 -11 -25 -25z m789 -51 c186 -72 377 -120 636 -160 168
-26 646 -25 815 1 99 15 318 65 400 91 41 13 -76 -46 -150 -75 -272 -108 -647
-164 -936 -141 -338 28 -583 108 -825 270 -106 70 -144 107 -75 71 24 -12 85
-38 135 -57z"/>
</g>
</svg>
