<svg width="45" height="45" viewBox="0 0 45 45" fill="none" xmlns="http://www.w3.org/2000/svg">
<path d="M22.6433 15.9C20.8929 15.9 19.2141 16.5954 17.9764 17.8331C16.7387 19.0708 16.0433 20.7496 16.0433 22.5C16.0433 24.2504 16.7387 25.9292 17.9764 27.1669C19.2141 28.4046 20.8929 29.1 22.6433 29.1C24.3937 29.1 26.0725 28.4046 27.3102 27.1669C28.548 25.9292 29.2433 24.2504 29.2433 22.5C29.2433 20.7496 28.548 19.0708 27.3102 17.8331C26.0725 16.5954 24.3937 15.9 22.6433 15.9ZM22.6433 11.5C25.5607 11.5 28.3586 12.6589 30.4215 14.7218C32.4844 16.7847 33.6433 19.5826 33.6433 22.5C33.6433 25.4174 32.4844 28.2153 30.4215 30.2782C28.3586 32.3411 25.5607 33.5 22.6433 33.5C19.7259 33.5 16.928 32.3411 14.8651 30.2782C12.8022 28.2153 11.6433 25.4174 11.6433 22.5C11.6433 19.5826 12.8022 16.7847 14.8651 14.7218C16.928 12.6589 19.7259 11.5 22.6433 11.5ZM36.9433 10.95C36.9433 11.6793 36.6536 12.3788 36.1379 12.8945C35.6221 13.4103 34.9227 13.7 34.1933 13.7C33.464 13.7 32.7645 13.4103 32.2488 12.8945C31.733 12.3788 31.4433 11.6793 31.4433 10.95C31.4433 10.2207 31.733 9.52118 32.2488 9.00546C32.7645 8.48973 33.464 8.2 34.1933 8.2C34.9227 8.2 35.6221 8.48973 36.1379 9.00546C36.6536 9.52118 36.9433 10.2207 36.9433 10.95ZM22.6433 4.9C17.2005 4.9 16.3117 4.9154 13.7795 5.0276C12.0547 5.109 10.8975 5.34 9.82391 5.758C8.92547 6.08786 8.11322 6.61658 7.44791 7.3046C6.75933 7.96988 6.22989 8.78208 5.89911 9.6806C5.48111 10.7586 5.25011 11.9136 5.17091 13.6362C5.05651 16.065 5.04111 16.9142 5.04111 22.5C5.04111 27.945 5.05651 28.8316 5.16871 31.3638C5.25011 33.0864 5.48111 34.2458 5.89691 35.3172C6.27091 36.2742 6.71091 36.9628 7.44131 37.6932C8.18271 38.4324 8.87131 38.8746 9.81731 39.2398C10.9041 39.66 12.0613 39.8932 13.7773 39.9724C16.2061 40.0868 17.0553 40.1 22.6411 40.1C28.0861 40.1 28.9727 40.0846 31.5049 39.9724C33.2253 39.891 34.3825 39.66 35.4583 39.2442C36.3559 38.9127 37.1678 38.3842 37.8343 37.6976C38.5757 36.9584 39.0179 36.2698 39.3831 35.3216C39.8011 34.2392 40.0343 33.082 40.1135 31.3616C40.2279 28.935 40.2411 28.0836 40.2411 22.5C40.2411 17.0572 40.2257 16.1684 40.1135 13.6362C40.0321 11.9158 39.7989 10.7542 39.3831 9.6806C39.0515 8.78304 38.523 7.97116 37.8365 7.3046C37.1715 6.61566 36.3592 6.08617 35.4605 5.7558C34.3825 5.3378 33.2253 5.1068 31.5049 5.0276C29.0783 4.9132 28.2313 4.9 22.6433 4.9ZM22.6433 0.5C28.6207 0.5 29.3665 0.522 31.7139 0.632C34.0547 0.742 35.6519 1.1094 37.0533 1.655C38.5053 2.2138 39.7285 2.9706 40.9517 4.1916C42.0704 5.29137 42.936 6.6217 43.4883 8.09C44.0317 9.4914 44.4013 11.0886 44.5113 13.4316C44.6147 15.7768 44.6433 16.5226 44.6433 22.5C44.6433 28.4774 44.6213 29.2232 44.5113 31.5684C44.4013 33.9114 44.0317 35.5064 43.4883 36.91C42.9375 38.3791 42.0717 39.7097 40.9517 40.8084C39.8516 41.9267 38.5214 42.7923 37.0533 43.345C35.6519 43.8884 34.0547 44.258 31.7139 44.368C29.3665 44.4714 28.6207 44.5 22.6433 44.5C16.6659 44.5 15.9201 44.478 13.5727 44.368C11.2319 44.258 9.63691 43.8884 8.23331 43.345C6.76443 42.7938 5.43387 41.9281 4.33491 40.8084C3.21606 39.7088 2.35042 38.3784 1.79831 36.91C1.25271 35.5086 0.885311 33.9114 0.775311 31.5684C0.669711 29.2232 0.643311 28.4774 0.643311 22.5C0.643311 16.5226 0.665311 15.7768 0.775311 13.4316C0.885311 11.0864 1.25271 9.4936 1.79831 8.09C2.34883 6.62079 3.21468 5.29011 4.33491 4.1916C5.43419 3.07231 6.76465 2.2066 8.23331 1.655C9.63471 1.1094 11.2297 0.742 13.5727 0.632C15.9201 0.5286 16.6659 0.5 22.6433 0.5Z" fill="white"/>
</svg>
