<svg width="112" height="40" viewBox="0 0 112 40" fill="none" xmlns="http://www.w3.org/2000/svg">
<path fill-rule="evenodd" clip-rule="evenodd" d="M14.6663 1.77375C7.43417 10.267 0.499907 20.7994 0.430374 28.672C0.403293 31.6341 1.34894 34.22 3.61718 36.1786C6.88156 38.9994 10.4782 39.9941 14.0574 40C19.2877 40.0073 24.4814 37.8972 28.548 36.2701C35.3966 33.5312 111.102 0.655364 111.102 0.655364C111.832 0.289402 111.695 -0.166585 110.781 0.061044C110.412 0.153266 28.3643 22.3884 28.3643 22.3884C26.8102 22.8279 25.2043 23.0579 23.5892 23.072C17.2837 23.1094 11.6727 19.6093 11.7181 12.2337C11.7357 9.3477 12.6191 5.8674 14.6663 1.77375Z" fill="white"/>
</svg>
